<mxfile host="Electron" modified="2024-08-11T15:25:01.556Z" agent="Mozilla/5.0 (Windows NT 10.0; Win64; x64) AppleWebKit/537.36 (KHTML, like Gecko) draw.io/21.2.8 Chrome/112.0.5615.165 Electron/24.2.0 Safari/537.36" etag="yzJKEtoCpw8l1C6yjOEJ" version="21.2.8" type="device">
  <diagram name="第 1 页" id="fQqDXORsTNsVTXknmnxQ">
    <mxGraphModel dx="1436" dy="838" grid="1" gridSize="10" guides="1" tooltips="1" connect="1" arrows="1" fold="1" page="1" pageScale="1" pageWidth="827" pageHeight="1169" math="0" shadow="0">
      <root>
        <mxCell id="0" />
        <mxCell id="1" parent="0" />
        <mxCell id="ofXnNgSydDhQR1dRrZMM-1" value="" style="image;html=1;image=img/lib/clip_art/networking/Wireless_Router_N_128x128.png" vertex="1" parent="1">
          <mxGeometry x="150" y="330" width="80" height="80" as="geometry" />
        </mxCell>
        <mxCell id="ofXnNgSydDhQR1dRrZMM-2" value="" style="image;html=1;image=img/lib/clip_art/networking/Wireless_Router_128x128.png" vertex="1" parent="1">
          <mxGeometry x="590" y="280" width="80" height="80" as="geometry" />
        </mxCell>
        <mxCell id="ofXnNgSydDhQR1dRrZMM-3" value="&lt;font style=&quot;font-size: 18px;&quot;&gt;光猫&lt;/font&gt;" style="text;strokeColor=none;align=center;fillColor=none;html=1;verticalAlign=middle;whiteSpace=wrap;rounded=0;" vertex="1" parent="1">
          <mxGeometry x="80" y="370" width="60" height="30" as="geometry" />
        </mxCell>
        <mxCell id="ofXnNgSydDhQR1dRrZMM-4" value="&lt;font style=&quot;font-size: 18px;&quot;&gt;LAN0&lt;/font&gt;" style="text;strokeColor=none;align=center;fillColor=none;html=1;verticalAlign=middle;whiteSpace=wrap;rounded=0;" vertex="1" parent="1">
          <mxGeometry x="265" y="320" width="60" height="30" as="geometry" />
        </mxCell>
        <mxCell id="ofXnNgSydDhQR1dRrZMM-5" value="" style="shape=curlyBracket;whiteSpace=wrap;html=1;rounded=1;labelPosition=left;verticalLabelPosition=middle;align=right;verticalAlign=middle;" vertex="1" parent="1">
          <mxGeometry x="240" y="240" width="20" height="370" as="geometry" />
        </mxCell>
        <mxCell id="ofXnNgSydDhQR1dRrZMM-7" value="&lt;font style=&quot;font-size: 18px;&quot;&gt;LAN1&lt;/font&gt;" style="text;strokeColor=none;align=center;fillColor=none;html=1;verticalAlign=middle;whiteSpace=wrap;rounded=0;" vertex="1" parent="1">
          <mxGeometry x="260" y="450" width="60" height="30" as="geometry" />
        </mxCell>
        <mxCell id="ofXnNgSydDhQR1dRrZMM-8" value="&lt;font style=&quot;font-size: 18px;&quot;&gt;LAN2&lt;/font&gt;" style="text;strokeColor=none;align=center;fillColor=none;html=1;verticalAlign=middle;whiteSpace=wrap;rounded=0;" vertex="1" parent="1">
          <mxGeometry x="260" y="555" width="60" height="30" as="geometry" />
        </mxCell>
        <mxCell id="ofXnNgSydDhQR1dRrZMM-9" value="&lt;font style=&quot;font-size: 18px;&quot;&gt;LAN3&lt;/font&gt;" style="text;strokeColor=none;align=center;fillColor=none;html=1;verticalAlign=middle;whiteSpace=wrap;rounded=0;" vertex="1" parent="1">
          <mxGeometry x="260" y="600" width="60" height="30" as="geometry" />
        </mxCell>
        <mxCell id="ofXnNgSydDhQR1dRrZMM-10" value="" style="shape=filledEdge;curved=0;rounded=0;fixDash=1;endArrow=none;strokeWidth=10;fillColor=#fff2cc;edgeStyle=orthogonalEdgeStyle;html=1;strokeColor=#d6b656;" edge="1" parent="1">
          <mxGeometry width="60" height="40" relative="1" as="geometry">
            <mxPoint x="20" y="441" as="sourcePoint" />
            <mxPoint x="190" y="420" as="targetPoint" />
          </mxGeometry>
        </mxCell>
        <mxCell id="ofXnNgSydDhQR1dRrZMM-11" value="&lt;span style=&quot;font-size: 18px;&quot;&gt;光纤（移动的局域网）&lt;/span&gt;" style="text;strokeColor=none;align=center;fillColor=none;html=1;verticalAlign=middle;whiteSpace=wrap;rounded=0;" vertex="1" parent="1">
          <mxGeometry x="20" y="450" width="210" height="40" as="geometry" />
        </mxCell>
        <mxCell id="ofXnNgSydDhQR1dRrZMM-12" value="&lt;font style=&quot;font-size: 18px;&quot;&gt;192.168.1.1&lt;/font&gt;" style="text;strokeColor=none;align=center;fillColor=none;html=1;verticalAlign=middle;whiteSpace=wrap;rounded=0;" vertex="1" parent="1">
          <mxGeometry x="120" y="290" width="120" height="30" as="geometry" />
        </mxCell>
        <mxCell id="ofXnNgSydDhQR1dRrZMM-13" value="" style="html=1;verticalLabelPosition=bottom;align=center;labelBackgroundColor=#ffffff;verticalAlign=top;strokeWidth=2;strokeColor=#0080F0;shadow=0;dashed=0;shape=mxgraph.ios7.icons.wifi;pointerEvents=1" vertex="1" parent="1">
          <mxGeometry x="270" y="230" width="50" height="40" as="geometry" />
        </mxCell>
        <mxCell id="ofXnNgSydDhQR1dRrZMM-14" value="" style="image;points=[];aspect=fixed;html=1;align=center;shadow=0;dashed=0;image=img/lib/allied_telesis/computer_and_terminals/Personal_Computer.svg;" vertex="1" parent="1">
          <mxGeometry x="397.2" y="80" width="45.6" height="61.800000000000004" as="geometry" />
        </mxCell>
        <mxCell id="ofXnNgSydDhQR1dRrZMM-15" value="" style="image;points=[];aspect=fixed;html=1;align=center;shadow=0;dashed=0;image=img/lib/allied_telesis/computer_and_terminals/Personal_Computer.svg;" vertex="1" parent="1">
          <mxGeometry x="397.2" y="208.2" width="45.6" height="61.800000000000004" as="geometry" />
        </mxCell>
        <mxCell id="ofXnNgSydDhQR1dRrZMM-16" value="" style="endArrow=classic;html=1;rounded=0;entryX=-0.061;entryY=0.463;entryDx=0;entryDy=0;entryPerimeter=0;strokeColor=#0066CC;strokeWidth=2;" edge="1" parent="1" target="ofXnNgSydDhQR1dRrZMM-14">
          <mxGeometry width="50" height="50" relative="1" as="geometry">
            <mxPoint x="330" y="240" as="sourcePoint" />
            <mxPoint x="350" y="180" as="targetPoint" />
            <Array as="points">
              <mxPoint x="360" y="240" />
              <mxPoint x="360" y="109" />
            </Array>
          </mxGeometry>
        </mxCell>
        <mxCell id="ofXnNgSydDhQR1dRrZMM-17" value="" style="endArrow=classic;html=1;rounded=0;strokeColor=#0066CC;strokeWidth=2;" edge="1" parent="1">
          <mxGeometry width="50" height="50" relative="1" as="geometry">
            <mxPoint x="330" y="240" as="sourcePoint" />
            <mxPoint x="390" y="240" as="targetPoint" />
            <Array as="points">
              <mxPoint x="360" y="240" />
            </Array>
          </mxGeometry>
        </mxCell>
        <mxCell id="ofXnNgSydDhQR1dRrZMM-18" value="&lt;font color=&quot;#0066cc&quot; style=&quot;font-size: 18px;&quot;&gt;192.168.1.17（举例）&lt;/font&gt;" style="text;strokeColor=none;align=center;fillColor=none;html=1;verticalAlign=middle;whiteSpace=wrap;rounded=0;" vertex="1" parent="1">
          <mxGeometry x="460" y="88.85000000000001" width="190" height="44.1" as="geometry" />
        </mxCell>
        <mxCell id="ofXnNgSydDhQR1dRrZMM-19" value="&lt;font color=&quot;#0066cc&quot; style=&quot;font-size: 18px;&quot;&gt;192.168.1.18（举例）&lt;/font&gt;" style="text;strokeColor=none;align=center;fillColor=none;html=1;verticalAlign=middle;whiteSpace=wrap;rounded=0;" vertex="1" parent="1">
          <mxGeometry x="460" y="217.05" width="190" height="44.1" as="geometry" />
        </mxCell>
        <mxCell id="ofXnNgSydDhQR1dRrZMM-20" value="&lt;font color=&quot;#0066cc&quot; style=&quot;font-size: 18px;&quot;&gt;wifi功率很低，网速在10Mbps左右&lt;/font&gt;" style="text;strokeColor=none;align=center;fillColor=none;html=1;verticalAlign=middle;whiteSpace=wrap;rounded=0;" vertex="1" parent="1">
          <mxGeometry x="200" y="141.8" width="150" height="50" as="geometry" />
        </mxCell>
        <mxCell id="ofXnNgSydDhQR1dRrZMM-22" value="" style="endArrow=classic;html=1;rounded=0;exitX=1;exitY=0.5;exitDx=0;exitDy=0;strokeWidth=2;strokeColor=#990000;" edge="1" parent="1" source="ofXnNgSydDhQR1dRrZMM-4">
          <mxGeometry width="50" height="50" relative="1" as="geometry">
            <mxPoint x="440" y="370" as="sourcePoint" />
            <mxPoint x="580" y="335" as="targetPoint" />
          </mxGeometry>
        </mxCell>
        <mxCell id="ofXnNgSydDhQR1dRrZMM-24" value="&lt;font color=&quot;#990000&quot; style=&quot;font-size: 18px;&quot;&gt;正式使用的路由器&lt;/font&gt;" style="text;strokeColor=none;align=center;fillColor=none;html=1;verticalAlign=middle;whiteSpace=wrap;rounded=0;" vertex="1" parent="1">
          <mxGeometry x="535" y="360.00000000000006" width="190" height="44.1" as="geometry" />
        </mxCell>
        <mxCell id="ofXnNgSydDhQR1dRrZMM-25" value="&lt;font color=&quot;#990000&quot; style=&quot;font-size: 18px;&quot;&gt;192.168.0.1&lt;/font&gt;" style="text;strokeColor=none;align=center;fillColor=none;html=1;verticalAlign=middle;whiteSpace=wrap;rounded=0;" vertex="1" parent="1">
          <mxGeometry x="640" y="290" width="140" height="40" as="geometry" />
        </mxCell>
        <mxCell id="ofXnNgSydDhQR1dRrZMM-26" value="&lt;font color=&quot;#990000&quot; style=&quot;font-size: 18px;&quot;&gt;192.168.0.15&lt;/font&gt;" style="text;strokeColor=none;align=center;fillColor=none;html=1;verticalAlign=middle;whiteSpace=wrap;rounded=0;" vertex="1" parent="1">
          <mxGeometry x="460" y="290" width="140" height="40" as="geometry" />
        </mxCell>
        <mxCell id="ofXnNgSydDhQR1dRrZMM-27" value="" style="endArrow=classic;html=1;rounded=0;exitX=1;exitY=0.5;exitDx=0;exitDy=0;strokeWidth=2;strokeColor=#006600;" edge="1" parent="1">
          <mxGeometry width="50" height="50" relative="1" as="geometry">
            <mxPoint x="325" y="469.5" as="sourcePoint" />
            <mxPoint x="580" y="469.5" as="targetPoint" />
          </mxGeometry>
        </mxCell>
        <mxCell id="ofXnNgSydDhQR1dRrZMM-28" value="&lt;font color=&quot;#990000&quot; style=&quot;font-size: 18px;&quot;&gt;DHCP&lt;/font&gt;" style="text;strokeColor=none;align=center;fillColor=none;html=1;verticalAlign=middle;whiteSpace=wrap;rounded=0;" vertex="1" parent="1">
          <mxGeometry x="360" y="290" width="140" height="40" as="geometry" />
        </mxCell>
        <mxCell id="ofXnNgSydDhQR1dRrZMM-29" value="&lt;font color=&quot;#006600&quot; style=&quot;font-size: 18px;&quot;&gt;IPTV&lt;/font&gt;" style="text;strokeColor=none;align=center;fillColor=none;html=1;verticalAlign=middle;whiteSpace=wrap;rounded=0;" vertex="1" parent="1">
          <mxGeometry x="360" y="430" width="140" height="40" as="geometry" />
        </mxCell>
        <mxCell id="ofXnNgSydDhQR1dRrZMM-31" value="&lt;font color=&quot;#006600&quot; style=&quot;font-size: 18px;&quot;&gt;192.168.0.16&lt;/font&gt;" style="text;strokeColor=none;align=center;fillColor=none;html=1;verticalAlign=middle;whiteSpace=wrap;rounded=0;" vertex="1" parent="1">
          <mxGeometry x="460" y="430" width="140" height="40" as="geometry" />
        </mxCell>
        <mxCell id="ofXnNgSydDhQR1dRrZMM-32" value="" style="image;points=[];aspect=fixed;html=1;align=center;shadow=0;dashed=0;image=img/lib/allied_telesis/computer_and_terminals/IP_TV.svg;" vertex="1" parent="1">
          <mxGeometry x="600" y="420" width="68.33" height="70" as="geometry" />
        </mxCell>
        <mxCell id="ofXnNgSydDhQR1dRrZMM-33" value="&lt;span style=&quot;font-size: 18px;&quot;&gt;&lt;font color=&quot;#006600&quot;&gt;只能接入电视机顶盒，无法接入电脑，路由器&lt;/font&gt;&lt;/span&gt;" style="text;strokeColor=none;align=center;fillColor=none;html=1;verticalAlign=middle;whiteSpace=wrap;rounded=0;" vertex="1" parent="1">
          <mxGeometry x="310" y="500" width="370" height="40" as="geometry" />
        </mxCell>
        <mxCell id="ofXnNgSydDhQR1dRrZMM-34" value="&lt;font color=&quot;#990000&quot; style=&quot;font-size: 18px;&quot;&gt;1000Mbps&lt;/font&gt;" style="text;strokeColor=none;align=center;fillColor=none;html=1;verticalAlign=middle;whiteSpace=wrap;rounded=0;" vertex="1" parent="1">
          <mxGeometry x="360" y="330" width="140" height="40" as="geometry" />
        </mxCell>
        <mxCell id="ofXnNgSydDhQR1dRrZMM-36" value="&lt;font color=&quot;#006600&quot; style=&quot;font-size: 18px;&quot;&gt;100Mbps&lt;/font&gt;" style="text;strokeColor=none;align=center;fillColor=none;html=1;verticalAlign=middle;whiteSpace=wrap;rounded=0;" vertex="1" parent="1">
          <mxGeometry x="360" y="470" width="140" height="40" as="geometry" />
        </mxCell>
      </root>
    </mxGraphModel>
  </diagram>
</mxfile>
